@startuml
title 결제상태 전이도 
hide empty description
state 결제요청 : 1
state 결제완료 : 2
state 결제취소 : 3
state 결제실패 : 4
state 결제대기 : 5
state 결제대기취소 : 6
state 부분취소 : 7
state 결제등록 : 9

[*] -down-> 결제요청
결제요청 -left-> 결제등록 : <<Success>>
note on link
결제 시 간편결제 등록만 요청한 경우 (결제금액 = 0)
end note
결제요청 -down-> 결제실패 : <<Failure>>
결제요청 -> 결제대기 : <<Success>>
note on link
* CyberSource, Adyen의 경우 인증 후 결제대기 상태로 변경되고
  추가적으로 승인(Capture) 절차 필요
* CNSPay 가상계좌의 경우 인증 후 입금이 확인되어야 결제완료 단계
end note
결제요청 -down-> 결제완료 : <<Success>>
note on link
자동승인방식**
end note
결제대기 -down-> 결제대기취소 : Cancel
결제대기 -down--> 결제완료 : Capture
note on link
* 캡처(CyberSource, Adyen) 
* 가상계좌입금(CNSPay)
end note
결제완료 -down----> 결제취소 : Cancel
결제완료 -down--> 부분취소 : Parcial Cancel
부분취소 -> 부분취소 : Pacial Cancel (결제잔액 > 0)
부분취소 -down--> 결제취소 : Cancel (결제잔액 = 0)
결제완료 -----> 결제대기
note on link
TossPayments 가상계좌**
end note
결제요청 -down-> [*]
결제대기 -down-> [*]
결제대기취소 -down-> [*]
결제완료 -down-> [*]
결제취소 -down-> [*]
부분취소 -down----> [*]
결제실패 -down-> [*]
결제등록 -down-> [*]

@enduml


